<svg xmlns="http://www.w3.org/2000/svg" xmlns:xlink="http://www.w3.org/1999/xlink" width="500" zoomAndPan="magnify" viewBox="0 0 375 374.999991" height="500" preserveAspectRatio="xMidYMid meet" version="1.0"><defs><clipPath id="c8a08e0151"><path d="M 18 69 L 359 69 L 359 314.953125 L 18 314.953125 Z M 18 69 " clip-rule="nonzero"/></clipPath></defs><g clip-path="url(#c8a08e0151)"><path fill="#ffffff" d="M 159.382812 141.453125 C 157.75 139.007812 156.9375 137.378906 156.9375 137.378906 C 168.34375 129.230469 183.011719 129.230469 194.421875 134.933594 C 198.496094 135.75 204.199219 137.378906 210.71875 140.636719 C 219.683594 145.527344 224.574219 150.417969 226.203125 154.492188 C 220.5 156.121094 215.609375 156.9375 212.351562 157.75 C 213.980469 156.121094 217.238281 154.492188 221.3125 152.863281 C 215.609375 154.492188 209.089844 153.675781 201.757812 150.417969 C 194.421875 145.527344 187.902344 143.082031 183.828125 142.269531 C 190.347656 142.269531 196.050781 143.898438 201.757812 147.15625 C 192.792969 140.636719 181.382812 137.378906 169.976562 139.824219 C 175.679688 141.453125 178.9375 142.269531 178.9375 142.269531 C 170.789062 141.453125 161.824219 140.636719 159.382812 141.453125 Z M 187.902344 149.601562 C 179.753906 146.34375 166.714844 144.714844 160.195312 144.714844 C 161.824219 147.15625 161.824219 150.417969 162.640625 152.863281 C 164.269531 159.382812 164.269531 148.789062 190.347656 159.382812 C 192.792969 160.195312 195.238281 161.011719 196.050781 162.640625 C 199.3125 161.828125 200.941406 161.828125 203.386719 161.828125 C 199.3125 162.640625 196.867188 163.457031 196.867188 163.457031 C 197.683594 165.085938 199.3125 165.902344 200.941406 167.53125 C 203.386719 168.34375 205.015625 168.34375 206.644531 168.34375 C 204.199219 169.160156 202.570312 169.160156 201.757812 169.160156 C 203.386719 172.421875 205.015625 174.050781 205.015625 174.050781 C 209.089844 171.605469 210.71875 168.34375 209.90625 165.085938 C 209.089844 163.457031 208.277344 162.640625 208.277344 162.640625 C 205.832031 162.640625 204.199219 162.640625 204.199219 162.640625 C 205.832031 161.011719 207.460938 160.195312 207.460938 160.195312 C 205.832031 159.382812 205.015625 159.382812 205.015625 159.382812 C 200.125 159.382812 196.867188 159.382812 194.421875 160.195312 C 199.3125 158.566406 200.941406 158.566406 200.941406 158.566406 C 192.792969 153.675781 186.273438 150.417969 182.199219 149.601562 C 186.273438 149.601562 187.902344 149.601562 187.902344 149.601562 Z M 198.496094 181.382812 C 194.421875 182.199219 191.164062 179.753906 187.902344 174.863281 C 187.902344 174.863281 187.085938 173.234375 184.644531 169.976562 C 189.53125 171.605469 191.164062 172.421875 191.164062 172.421875 C 192.792969 175.679688 193.605469 178.125 193.605469 178.125 C 191.976562 177.308594 190.347656 176.496094 189.53125 174.863281 C 191.976562 178.9375 195.238281 180.570312 198.496094 181.382812 Z M 156.9375 133.304688 C 158.566406 125.15625 158.566406 121.894531 165.898438 121.082031 C 186.273438 119.449219 200.125 121.894531 210.71875 127.601562 C 208.277344 125.96875 207.460938 124.339844 207.460938 124.339844 C 215.609375 126.785156 223.757812 127.601562 231.09375 127.601562 C 231.90625 137.378906 231.90625 142.269531 231.90625 142.269531 C 224.574219 134.933594 218.054688 130.859375 213.164062 129.230469 C 218.054688 132.488281 222.128906 134.933594 224.574219 137.378906 C 217.238281 133.304688 210.71875 130.859375 204.199219 130.859375 C 200.125 131.675781 194.421875 130.859375 187.085938 128.414062 C 175.679688 124.339844 165.898438 125.96875 156.9375 133.304688 Z M 187.902344 169.976562 C 183.011719 168.34375 177.308594 166.714844 177.308594 166.714844 C 176.492188 165.085938 172.417969 161.828125 166.714844 158.566406 C 174.863281 159.382812 181.382812 164.269531 187.902344 169.976562 Z M 184.644531 112.933594 C 187.902344 115.375 200.125 116.191406 205.015625 103.152344 C 205.832031 103.152344 206.644531 104.78125 207.460938 106.414062 C 208.277344 112.933594 209.90625 118.636719 215.609375 118.636719 C 230.277344 117.007812 241.6875 121.894531 248.207031 133.304688 C 255.539062 140.636719 265.320312 146.34375 278.359375 150.417969 C 273.46875 152.863281 267.765625 154.492188 262.058594 155.308594 C 268.578125 155.308594 275.914062 154.492188 281.617188 151.234375 C 285.691406 150.417969 289.765625 151.234375 293.027344 154.492188 C 292.210938 153.675781 291.394531 152.046875 290.582031 152.046875 C 294.65625 150.417969 298.730469 151.234375 301.988281 152.863281 C 300.359375 151.234375 298.730469 150.417969 297.101562 149.601562 C 308.507812 150.417969 320.734375 149.601562 333.773438 147.15625 C 339.476562 144.714844 345.179688 145.527344 352.515625 141.453125 C 354.144531 141.453125 354.960938 142.269531 354.144531 143.082031 C 355.773438 142.269531 356.589844 141.453125 356.589844 142.269531 C 357.402344 143.898438 355.773438 144.714844 354.144531 145.527344 C 355.773438 144.714844 358.21875 143.898438 358.21875 144.714844 C 359.847656 146.34375 352.515625 149.601562 348.441406 150.417969 C 350.070312 149.601562 354.144531 147.972656 354.960938 147.15625 C 348.441406 150.417969 344.367188 152.046875 341.921875 152.863281 C 345.179688 153.675781 349.253906 151.234375 350.070312 152.863281 C 351.699219 154.492188 350.886719 156.9375 344.367188 156.9375 C 341.921875 156.9375 338.660156 159.382812 335.402344 157.75 C 334.585938 156.9375 333.773438 156.9375 332.957031 156.9375 C 329.695312 156.121094 326.4375 157.75 323.992188 158.566406 C 319.101562 159.382812 316.660156 159.382812 307.695312 157.75 C 310.953125 159.382812 313.398438 159.382812 315.84375 160.195312 C 308.507812 163.457031 297.914062 165.902344 293.839844 165.902344 C 284.0625 166.714844 277.542969 167.53125 272.652344 166.714844 C 255.539062 163.457031 244.132812 160.195312 236.796875 158.566406 C 227.832031 162.640625 219.683594 169.160156 210.71875 179.753906 C 207.460938 182.199219 200.125 191.164062 196.050781 192.792969 C 194.421875 193.609375 192.792969 192.792969 191.164062 191.976562 C 191.164062 184.644531 187.902344 177.308594 183.011719 172.421875 C 185.457031 176.496094 187.902344 181.382812 188.71875 185.457031 C 187.085938 183.015625 184.644531 180.570312 182.199219 178.9375 C 186.273438 183.828125 188.71875 189.535156 188.71875 196.050781 C 185.457031 201.757812 181.382812 206.644531 177.308594 210.722656 C 169.160156 216.425781 158.566406 227.835938 150.417969 229.464844 C 166.714844 214.796875 164.269531 205.015625 152.863281 196.867188 C 166.714844 212.351562 155.304688 219.683594 147.15625 228.648438 C 144.710938 230.277344 142.269531 231.09375 140.636719 230.277344 C 138.191406 237.613281 133.304688 244.132812 125.96875 250.652344 C 115.375 261.246094 106.410156 270.210938 99.078125 275.097656 C 96.632812 277.542969 93.375 281.617188 91.742188 284.878906 C 87.667969 288.136719 85.222656 291.398438 83.59375 293.839844 C 75.445312 306.878906 67.296875 314.214844 58.332031 315.03125 C 55.074219 313.398438 53.441406 310.953125 53.441406 307.695312 C 52.628906 309.324219 52.628906 311.769531 54.257812 313.398438 C 51.8125 310.953125 50.183594 308.511719 50.183594 306.066406 C 50.183594 303.621094 50.996094 301.175781 52.628906 298.730469 C 59.148438 293.839844 64.035156 289.765625 67.296875 287.324219 C 71.371094 282.433594 73.816406 279.988281 75.445312 277.542969 C 78.703125 275.097656 81.964844 272.652344 86.039062 270.210938 C 96.632812 254.726562 103.152344 244.945312 105.597656 243.316406 C 110.484375 235.167969 115.375 229.464844 120.265625 223.757812 C 118.636719 228.648438 118.636719 232.722656 120.265625 237.613281 C 120.265625 225.390625 122.710938 216.425781 125.96875 210.722656 C 131.675781 193.609375 139.007812 187.902344 160.195312 194.421875 C 152.046875 187.089844 140.636719 188.71875 137.378906 190.347656 C 145.527344 180.570312 159.382812 174.863281 168.34375 176.496094 C 152.863281 172.421875 141.453125 180.570312 134.933594 190.347656 C 137.378906 185.457031 139.007812 181.382812 141.453125 178.9375 C 135.75 184.644531 132.488281 189.535156 130.042969 194.421875 C 122.710938 182.199219 118.636719 170.789062 119.449219 159.382812 C 118.636719 161.828125 117.820312 164.269531 117.820312 167.53125 C 104.78125 174.863281 96.632812 178.125 92.558594 176.496094 L 95.816406 178.125 C 90.929688 178.9375 86.855469 180.570312 85.222656 182.199219 C 77.890625 186.273438 70.554688 186.273438 66.480469 192.792969 C 64.035156 195.238281 64.035156 192.792969 60.777344 191.976562 C 62.40625 193.609375 63.222656 193.609375 63.222656 195.238281 C 61.589844 199.3125 58.332031 199.3125 57.515625 202.570312 C 56.703125 205.832031 55.074219 205.015625 54.257812 205.015625 C 53.441406 204.203125 53.441406 204.203125 53.441406 203.386719 C 52.628906 204.203125 53.441406 205.015625 53.441406 205.015625 C 51.8125 205.832031 50.183594 208.277344 48.554688 211.535156 C 46.921875 212.351562 46.109375 212.351562 46.921875 210.722656 C 46.921875 209.089844 46.921875 208.277344 47.738281 207.460938 C 43.664062 209.089844 42.847656 209.089844 44.480469 206.644531 C 50.183594 199.3125 55.886719 185.457031 64.851562 191.976562 C 62.40625 189.535156 60.777344 188.71875 58.332031 188.71875 C 60.777344 186.273438 66.480469 176.496094 81.964844 169.976562 C 79.519531 173.234375 77.890625 174.863281 77.074219 175.679688 C 80.335938 173.234375 84.410156 170.789062 88.484375 166.714844 C 95.003906 161.011719 101.523438 157.75 107.226562 154.492188 L 117.003906 148.789062 C 115.375 145.527344 114.5625 143.082031 115.375 140.636719 C 120.265625 150.417969 126.785156 150.417969 139.007812 145.527344 C 129.230469 145.527344 122.710938 149.601562 117.003906 139.007812 C 121.082031 138.195312 124.339844 137.378906 126.785156 134.121094 C 121.894531 135.75 117.820312 137.378906 112.929688 137.378906 L 111.300781 134.933594 C 115.375 132.488281 117.820312 130.042969 117.820312 126.785156 C 116.191406 130.042969 112.929688 132.488281 109.671875 134.121094 C 93.375 135.75 83.59375 134.933594 80.335938 130.859375 C 74.628906 128.414062 68.925781 126.785156 64.035156 126.785156 C 59.960938 125.15625 55.886719 124.339844 50.996094 123.527344 C 46.921875 125.96875 44.480469 125.96875 42.035156 127.601562 C 39.589844 129.230469 37.960938 130.859375 33.882812 131.675781 C 25.734375 132.488281 30.625 119.449219 23.289062 113.746094 C 15.140625 102.335938 16.773438 96.632812 27.367188 101.523438 C 32.253906 103.96875 35.515625 105.597656 36.328125 106.414062 C 42.847656 109.671875 47.738281 110.488281 49.367188 110.488281 C 54.257812 111.300781 58.332031 111.300781 62.40625 109.671875 C 85.222656 108.042969 99.890625 108.855469 108.042969 112.117188 C 114.5625 113.746094 120.265625 113.746094 125.15625 113.746094 C 130.859375 113.746094 132.488281 117.820312 136.5625 122.710938 C 137.378906 127.601562 136.5625 133.304688 130.042969 138.195312 C 137.378906 137.378906 140.636719 126.785156 139.824219 123.527344 C 145.527344 128.414062 156.121094 146.34375 157.75 160.195312 C 158.566406 147.15625 151.230469 130.859375 143.082031 121.894531 C 143.898438 122.710938 144.710938 123.527344 145.527344 124.339844 C 152.863281 119.449219 157.75 116.191406 159.382812 113.746094 C 166.714844 110.488281 174.050781 109.671875 181.382812 112.117188 C 182.199219 112.117188 179.753906 106.414062 179.753906 105.597656 C 178.9375 104.78125 179.753906 107.226562 177.308594 106.414062 C 175.679688 105.597656 169.976562 95.820312 174.050781 95.820312 C 165.085938 80.335938 173.234375 68.925781 191.164062 69.742188 L 186.273438 71.371094 C 190.347656 70.554688 194.421875 71.371094 200.125 73.816406 L 196.867188 74.632812 C 200.125 77.890625 201.757812 80.335938 202.570312 81.964844 C 205.015625 80.335938 206.644531 81.964844 208.277344 86.855469 C 209.90625 90.929688 209.089844 92.558594 206.644531 93.375 C 205.832031 93.375 205.015625 93.375 205.015625 93.375 C 205.015625 96.632812 204.199219 99.894531 203.386719 102.335938 C 202.570312 99.894531 203.386719 99.078125 201.757812 95.003906 C 203.386719 101.523438 200.941406 109.671875 194.421875 112.117188 C 191.976562 113.746094 188.71875 113.746094 184.644531 112.933594 Z M 184.644531 112.933594 " fill-opacity="1" fill-rule="evenodd"/></g><path fill="#ffffff" d="M 68.925781 79.519531 L 68.109375 78.707031 C 68.109375 79.519531 67.296875 79.519531 67.296875 79.519531 C 66.480469 79.519531 66.480469 79.519531 66.480469 80.335938 C 66.480469 83.59375 64.035156 86.855469 64.035156 86.855469 C 64.035156 87.667969 64.851562 89.300781 64.035156 92.558594 L 64.851562 91.742188 C 66.480469 90.113281 67.296875 88.484375 68.109375 86.039062 C 68.925781 84.410156 68.925781 81.964844 68.925781 79.519531 Z M 39.589844 65.667969 L 37.960938 68.113281 C 37.960938 68.925781 38.773438 69.742188 38.773438 69.742188 C 39.589844 69.742188 42.847656 68.925781 45.292969 68.925781 C 46.109375 68.113281 47.738281 67.296875 49.367188 66.480469 C 50.183594 65.667969 50.183594 65.667969 50.996094 65.667969 C 50.183594 64.851562 49.367188 63.222656 48.554688 62.40625 C 46.109375 62.40625 43.664062 63.222656 41.21875 64.035156 C 40.402344 64.851562 40.402344 64.851562 39.589844 65.667969 Z M 31.441406 78.707031 C 31.441406 78.707031 31.441406 80.335938 32.253906 81.148438 C 33.882812 79.519531 35.515625 77.890625 36.328125 77.890625 C 36.328125 77.074219 36.328125 73.816406 37.960938 70.554688 C 37.960938 69.742188 37.960938 68.925781 37.144531 68.113281 L 36.328125 68.925781 C 36.328125 68.925781 35.515625 68.925781 35.515625 68.925781 C 33.882812 70.554688 33.070312 73 32.253906 75.445312 C 31.441406 76.261719 31.441406 77.890625 31.441406 78.707031 Z M 57.515625 98.261719 L 57.515625 97.449219 C 54.257812 98.261719 51.8125 97.449219 51.8125 97.449219 C 50.996094 98.261719 48.554688 99.078125 44.480469 98.261719 L 44.480469 99.078125 C 48.554688 99.894531 53.441406 99.894531 57.515625 98.261719 Z M 57.515625 86.855469 C 56.703125 87.667969 54.257812 90.113281 50.996094 91.742188 C 51.8125 92.558594 51.8125 94.1875 51.8125 96.632812 C 52.628906 97.449219 54.257812 97.449219 57.515625 97.449219 C 57.515625 96.632812 60.777344 95.003906 63.222656 92.558594 C 64.035156 90.929688 63.222656 89.300781 63.222656 88.484375 C 63.222656 87.667969 63.222656 87.667969 63.222656 87.667969 C 59.960938 87.667969 58.332031 86.855469 57.515625 86.855469 Z M 67.296875 78.707031 L 68.109375 75.445312 C 67.296875 74.632812 67.296875 73 66.480469 72.1875 C 66.480469 71.371094 65.667969 71.371094 65.667969 70.554688 L 61.589844 67.296875 L 59.148438 68.113281 C 59.960938 68.925781 60.777344 70.554688 61.589844 74.632812 C 64.035156 77.074219 65.667969 78.707031 65.667969 79.519531 C 66.480469 79.519531 67.296875 78.707031 67.296875 78.707031 Z M 61.589844 67.296875 L 64.035156 68.925781 C 63.222656 67.296875 62.40625 66.480469 61.589844 65.667969 Z M 46.109375 69.742188 L 47.738281 76.261719 C 51.8125 77.074219 54.257812 77.890625 55.074219 78.707031 C 55.074219 78.707031 55.886719 77.890625 55.886719 77.890625 C 58.332031 77.074219 59.960938 74.632812 60.777344 74.632812 C 59.960938 70.554688 59.148438 68.925781 58.332031 68.113281 C 58.332031 68.113281 53.441406 65.667969 50.996094 65.667969 C 50.996094 65.667969 47.738281 68.113281 46.109375 69.742188 Z M 43.664062 98.261719 C 43.664062 98.261719 41.21875 95.820312 39.589844 93.375 C 38.773438 93.375 36.328125 91.742188 34.699219 90.113281 L 33.882812 90.929688 C 36.328125 95.003906 39.589844 97.449219 43.664062 99.078125 Z M 56.703125 86.855469 C 56.703125 83.59375 55.074219 79.519531 55.074219 78.707031 C 54.257812 78.707031 51.8125 77.074219 47.738281 76.261719 C 47.738281 77.074219 43.664062 79.519531 42.035156 81.964844 C 42.035156 81.964844 42.035156 85.226562 43.664062 88.484375 C 44.480469 89.300781 46.921875 90.929688 50.996094 91.742188 C 53.441406 90.113281 56.703125 86.855469 56.703125 86.855469 Z M 33.070312 81.964844 C 33.070312 81.964844 32.253906 85.226562 34.699219 89.300781 C 36.328125 90.929688 38.773438 92.558594 39.589844 92.558594 L 42.847656 89.300781 C 42.035156 85.226562 42.035156 82.78125 42.035156 81.964844 C 41.21875 81.148438 38.773438 80.335938 36.328125 78.707031 C 35.515625 78.707031 33.882812 79.519531 33.070312 81.964844 Z M 39.589844 91.742188 C 39.589844 90.929688 39.589844 90.929688 39.589844 90.929688 C 39.589844 90.929688 39.589844 90.929688 40.402344 90.929688 C 40.402344 90.113281 40.402344 90.113281 40.402344 90.113281 C 40.402344 90.113281 40.402344 89.300781 40.402344 89.300781 C 41.21875 89.300781 41.21875 89.300781 41.21875 89.300781 L 41.21875 88.484375 C 41.21875 88.484375 42.035156 88.484375 42.035156 88.484375 C 42.035156 88.484375 42.035156 88.484375 41.21875 88.484375 C 41.21875 88.484375 41.21875 88.484375 41.21875 87.667969 C 41.21875 86.855469 41.21875 86.855469 41.21875 86.855469 C 41.21875 86.039062 41.21875 86.039062 41.21875 86.039062 C 41.21875 86.039062 40.402344 86.039062 40.402344 86.039062 C 40.402344 85.226562 40.402344 85.226562 40.402344 85.226562 C 40.402344 84.410156 40.402344 84.410156 40.402344 84.410156 C 40.402344 83.59375 40.402344 83.59375 40.402344 83.59375 C 40.402344 82.78125 40.402344 82.78125 40.402344 82.78125 L 41.21875 82.78125 L 41.21875 84.410156 C 41.21875 84.410156 41.21875 84.410156 41.21875 85.226562 C 41.21875 85.226562 41.21875 85.226562 42.035156 86.039062 L 42.035156 86.855469 C 42.035156 87.667969 42.035156 87.667969 42.035156 87.667969 C 42.847656 87.667969 42.847656 88.484375 42.847656 88.484375 L 42.847656 89.300781 C 42.847656 89.300781 42.035156 89.300781 42.035156 89.300781 C 42.035156 89.300781 42.035156 89.300781 42.035156 90.113281 C 42.035156 90.113281 41.21875 90.113281 41.21875 90.113281 C 41.21875 90.929688 41.21875 90.929688 40.402344 90.929688 C 40.402344 90.929688 40.402344 90.929688 39.589844 91.742188 Z M 43.664062 81.148438 C 43.664062 80.335938 44.480469 80.335938 44.480469 80.335938 C 44.480469 80.335938 44.480469 80.335938 44.480469 79.519531 C 45.292969 79.519531 45.292969 79.519531 45.292969 79.519531 L 46.109375 78.707031 C 46.109375 78.707031 46.109375 77.890625 46.921875 77.890625 C 46.921875 77.890625 47.738281 77.890625 47.738281 77.890625 C 47.738281 77.074219 47.738281 77.074219 47.738281 77.074219 L 48.554688 77.074219 C 48.554688 77.074219 49.367188 77.074219 49.367188 77.074219 C 49.367188 77.890625 50.183594 77.890625 50.183594 77.890625 L 50.996094 77.890625 C 50.996094 77.890625 50.996094 77.890625 51.8125 77.890625 C 51.8125 77.890625 51.8125 78.707031 51.8125 78.707031 C 51.8125 78.707031 51.8125 78.707031 52.628906 78.707031 C 53.441406 79.519531 53.441406 79.519531 53.441406 79.519531 C 53.441406 79.519531 54.257812 79.519531 54.257812 79.519531 L 52.628906 79.519531 C 52.628906 79.519531 51.8125 78.707031 51.8125 78.707031 L 49.367188 78.707031 C 49.367188 78.707031 49.367188 77.890625 49.367188 77.890625 L 48.554688 77.890625 L 46.109375 80.335938 L 45.292969 80.335938 C 45.292969 80.335938 45.292969 80.335938 45.292969 81.148438 C 45.292969 81.148438 45.292969 81.148438 44.480469 81.148438 L 44.480469 81.964844 L 43.664062 81.964844 C 43.664062 81.148438 43.664062 81.148438 43.664062 81.148438 Z M 50.183594 68.113281 L 49.367188 68.113281 L 48.554688 68.925781 C 48.554688 68.925781 47.738281 68.925781 47.738281 68.925781 C 47.738281 68.925781 47.738281 69.742188 47.738281 69.742188 C 47.738281 69.742188 46.921875 69.742188 46.921875 69.742188 C 46.921875 69.742188 46.921875 69.742188 47.738281 69.742188 C 47.738281 69.742188 47.738281 69.742188 47.738281 68.925781 C 48.554688 68.925781 48.554688 68.925781 48.554688 68.113281 C 48.554688 68.113281 49.367188 68.113281 49.367188 68.113281 L 49.367188 67.296875 C 50.183594 67.296875 50.183594 67.296875 50.183594 67.296875 C 50.183594 67.296875 50.996094 66.480469 50.996094 66.480469 L 51.8125 66.480469 C 52.628906 66.480469 52.628906 66.480469 52.628906 66.480469 C 52.628906 66.480469 52.628906 66.480469 53.441406 66.480469 C 53.441406 66.480469 53.441406 66.480469 53.441406 67.296875 C 54.257812 67.296875 54.257812 67.296875 54.257812 67.296875 L 55.074219 67.296875 L 55.074219 68.113281 C 55.886719 68.113281 55.886719 68.113281 55.886719 68.113281 C 55.886719 68.113281 56.703125 68.113281 56.703125 68.113281 C 56.703125 68.113281 56.703125 68.925781 56.703125 68.925781 C 56.703125 68.925781 57.515625 68.925781 57.515625 68.925781 C 57.515625 68.925781 57.515625 69.742188 57.515625 69.742188 L 56.703125 68.925781 L 55.886719 68.925781 L 54.257812 68.113281 L 53.441406 68.113281 C 53.441406 68.113281 53.441406 68.113281 52.628906 68.113281 C 52.628906 67.296875 52.628906 67.296875 52.628906 67.296875 C 52.628906 67.296875 51.8125 67.296875 51.8125 67.296875 L 50.996094 67.296875 Z M 61.589844 73 C 61.589844 73 61.589844 72.1875 61.589844 72.1875 L 61.589844 70.554688 C 61.589844 70.554688 61.589844 70.554688 60.777344 70.554688 C 60.777344 70.554688 60.777344 70.554688 60.777344 69.742188 L 60.777344 68.925781 C 60.777344 68.925781 60.777344 68.925781 60.777344 69.742188 C 60.777344 69.742188 61.589844 69.742188 61.589844 69.742188 C 61.589844 69.742188 61.589844 70.554688 61.589844 70.554688 C 61.589844 71.371094 62.40625 71.371094 62.40625 71.371094 C 62.40625 71.371094 62.40625 72.1875 62.40625 72.1875 C 62.40625 73 62.40625 73 62.40625 73 C 62.40625 73 62.40625 73.816406 63.222656 73.816406 C 63.222656 74.632812 63.222656 74.632812 63.222656 74.632812 L 64.035156 74.632812 C 64.035156 74.632812 64.035156 74.632812 64.035156 75.445312 C 64.035156 75.445312 64.035156 75.445312 64.851562 75.445312 C 64.851562 75.445312 64.851562 75.445312 64.851562 76.261719 C 65.667969 76.261719 65.667969 76.261719 65.667969 76.261719 C 65.667969 77.074219 65.667969 77.074219 65.667969 77.074219 C 65.667969 77.074219 65.667969 77.890625 65.667969 77.890625 C 66.480469 77.890625 66.480469 77.890625 66.480469 77.890625 C 66.480469 78.707031 66.480469 78.707031 66.480469 78.707031 C 66.480469 78.707031 66.480469 78.707031 66.480469 77.890625 L 65.667969 77.890625 C 65.667969 77.890625 65.667969 77.890625 65.667969 77.074219 C 65.667969 77.074219 64.851562 77.074219 64.851562 77.074219 C 64.851562 76.261719 64.851562 76.261719 64.035156 76.261719 C 64.035156 76.261719 64.035156 75.445312 64.035156 75.445312 L 63.222656 75.445312 L 62.40625 74.632812 C 62.40625 74.632812 62.40625 74.632812 62.40625 73.816406 L 61.589844 73.816406 Z M 58.332031 87.667969 C 58.332031 87.667969 58.332031 87.667969 59.148438 87.667969 C 59.960938 87.667969 59.960938 87.667969 59.960938 87.667969 C 60.777344 87.667969 60.777344 87.667969 60.777344 87.667969 C 61.589844 87.667969 61.589844 88.484375 61.589844 88.484375 C 62.40625 88.484375 62.40625 88.484375 62.40625 88.484375 C 61.589844 88.484375 61.589844 88.484375 61.589844 88.484375 C 61.589844 88.484375 60.777344 88.484375 60.777344 88.484375 C 60.777344 88.484375 60.777344 88.484375 59.960938 88.484375 C 59.960938 88.484375 59.960938 88.484375 59.148438 88.484375 C 59.148438 88.484375 59.148438 88.484375 58.332031 88.484375 C 57.515625 88.484375 57.515625 87.667969 57.515625 87.667969 C 57.515625 87.667969 57.515625 87.667969 58.332031 87.667969 Z M 58.332031 99.078125 C 53.441406 101.523438 48.554688 101.523438 44.480469 99.894531 C 38.773438 98.261719 35.515625 95.820312 33.070312 90.929688 C 33.070312 90.929688 32.253906 90.929688 32.253906 90.929688 C 32.253906 90.113281 32.253906 90.113281 32.253906 90.113281 C 32.253906 89.300781 32.253906 89.300781 32.253906 89.300781 C 32.253906 89.300781 31.441406 89.300781 31.441406 89.300781 C 31.441406 89.300781 31.441406 88.484375 31.441406 88.484375 C 31.441406 87.667969 31.441406 87.667969 31.441406 87.667969 C 29.808594 83.59375 29.808594 78.707031 30.625 74.632812 C 32.253906 69.742188 35.515625 65.667969 40.402344 63.222656 C 45.292969 60.777344 50.996094 59.960938 55.886719 61.59375 C 60.777344 63.222656 64.851562 66.480469 67.296875 71.371094 C 69.742188 76.261719 70.554688 81.964844 68.925781 86.855469 C 68.109375 90.113281 65.667969 93.375 63.222656 95.820312 C 62.40625 96.632812 62.40625 96.632812 62.40625 96.632812 C 62.40625 96.632812 61.589844 96.632812 61.589844 97.449219 C 61.589844 97.449219 60.777344 97.449219 60.777344 98.261719 C 60.777344 98.261719 59.960938 98.261719 59.960938 98.261719 C 59.960938 98.261719 59.148438 99.078125 59.148438 99.078125 C 58.332031 99.078125 58.332031 99.078125 58.332031 99.078125 Z M 58.332031 99.078125 " fill-opacity="1" fill-rule="evenodd"/></svg>