<svg xmlns="http://www.w3.org/2000/svg" xmlns:xlink="http://www.w3.org/1999/xlink" width="500" zoomAndPan="magnify" viewBox="0 0 375 374.999991" height="500" preserveAspectRatio="xMidYMid meet" version="1.0"><defs><g/><clipPath id="4da9fb59a1"><path d="M 26 75 L 350 75 L 350 308.097656 L 26 308.097656 Z M 26 75 " clip-rule="nonzero"/></clipPath></defs><g clip-path="url(#4da9fb59a1)"><path fill="#fad02c" d="M 160.84375 143.851562 C 159.300781 141.53125 158.527344 139.988281 158.527344 139.988281 C 169.34375 132.261719 183.246094 132.261719 194.0625 137.671875 C 197.925781 138.441406 203.332031 139.988281 209.511719 143.078125 C 218.007812 147.710938 222.644531 152.347656 224.1875 156.210938 C 218.78125 157.753906 214.144531 158.527344 211.054688 159.300781 C 212.601562 157.753906 215.691406 156.210938 219.554688 154.664062 C 214.144531 156.210938 207.964844 155.4375 201.015625 152.347656 C 194.0625 147.710938 187.882812 145.394531 184.019531 144.621094 C 190.199219 144.621094 195.605469 146.167969 201.015625 149.257812 C 192.515625 143.078125 181.703125 139.988281 170.886719 142.304688 C 176.292969 143.851562 179.382812 144.621094 179.382812 144.621094 C 171.660156 143.851562 163.164062 143.078125 160.84375 143.851562 Z M 187.882812 151.574219 C 180.15625 148.484375 167.796875 146.941406 161.617188 146.941406 C 163.164062 149.257812 163.164062 152.347656 163.933594 154.664062 C 165.480469 160.84375 165.480469 150.800781 190.199219 160.84375 C 192.515625 161.617188 194.835938 162.390625 195.605469 163.933594 C 198.695312 163.160156 200.242188 163.160156 202.558594 163.160156 C 198.695312 163.933594 196.378906 164.707031 196.378906 164.707031 C 197.152344 166.25 198.695312 167.023438 200.242188 168.570312 C 202.558594 169.339844 204.105469 169.339844 205.648438 169.339844 C 203.332031 170.113281 201.785156 170.113281 201.015625 170.113281 C 202.558594 173.203125 204.105469 174.75 204.105469 174.75 C 207.964844 172.429688 209.511719 169.339844 208.738281 166.25 C 207.964844 164.707031 207.195312 163.933594 207.195312 163.933594 C 204.875 163.933594 203.332031 163.933594 203.332031 163.933594 C 204.875 162.390625 206.421875 161.617188 206.421875 161.617188 C 204.875 160.84375 204.105469 160.84375 204.105469 160.84375 C 199.46875 160.84375 196.378906 160.84375 194.0625 161.617188 C 198.695312 160.070312 200.242188 160.070312 200.242188 160.070312 C 192.515625 155.4375 186.335938 152.347656 182.472656 151.574219 C 186.335938 151.574219 187.882812 151.574219 187.882812 151.574219 Z M 197.925781 181.699219 C 194.0625 182.472656 190.972656 180.15625 187.882812 175.519531 C 187.882812 175.519531 187.109375 173.976562 184.792969 170.886719 C 189.425781 172.429688 190.972656 173.203125 190.972656 173.203125 C 192.515625 176.292969 193.289062 178.609375 193.289062 178.609375 C 191.742188 177.839844 190.199219 177.066406 189.425781 175.519531 C 191.742188 179.382812 194.835938 180.929688 197.925781 181.699219 Z M 158.527344 136.125 C 160.074219 128.402344 160.074219 125.3125 167.023438 124.539062 C 186.335938 122.992188 199.46875 125.3125 209.511719 130.71875 C 207.195312 129.171875 206.421875 127.628906 206.421875 127.628906 C 214.144531 129.945312 221.871094 130.71875 228.824219 130.71875 C 229.59375 139.988281 229.59375 144.621094 229.59375 144.621094 C 222.644531 137.671875 216.464844 133.808594 211.828125 132.261719 C 216.464844 135.351562 220.324219 137.671875 222.644531 139.988281 C 215.691406 136.125 209.511719 133.808594 203.332031 133.808594 C 199.46875 134.582031 194.0625 133.808594 187.109375 131.492188 C 176.292969 127.628906 167.023438 129.171875 158.527344 136.125 Z M 187.882812 170.886719 C 183.246094 169.339844 177.839844 167.796875 177.839844 167.796875 C 177.066406 166.25 173.203125 163.160156 167.796875 160.070312 C 175.523438 160.84375 181.703125 165.480469 187.882812 170.886719 Z M 184.792969 116.8125 C 187.882812 119.128906 199.46875 119.902344 204.105469 107.542969 C 204.875 107.542969 205.648438 109.089844 206.421875 110.632812 C 207.195312 116.8125 208.738281 122.21875 214.144531 122.21875 C 228.050781 120.675781 238.863281 125.3125 245.042969 136.125 C 251.996094 143.078125 261.265625 148.484375 273.625 152.347656 C 268.992188 154.664062 263.582031 156.210938 258.175781 156.980469 C 264.355469 156.980469 271.308594 156.210938 276.714844 153.121094 C 280.578125 152.347656 284.441406 153.121094 287.53125 156.210938 C 286.757812 155.4375 285.984375 153.890625 285.210938 153.890625 C 289.074219 152.347656 292.9375 153.121094 296.027344 154.664062 C 294.480469 153.121094 292.9375 152.347656 291.390625 151.574219 C 302.207031 152.347656 313.792969 151.574219 326.152344 149.257812 C 331.5625 146.941406 336.96875 147.710938 343.921875 143.851562 C 345.464844 143.851562 346.238281 144.621094 345.464844 145.394531 C 347.011719 144.621094 347.78125 143.851562 347.78125 144.621094 C 348.554688 146.167969 347.011719 146.941406 345.464844 147.710938 C 347.011719 146.941406 349.328125 146.167969 349.328125 146.941406 C 350.871094 148.484375 343.921875 151.574219 340.058594 152.347656 C 341.601562 151.574219 345.464844 150.03125 346.238281 149.257812 C 340.058594 152.347656 336.195312 153.890625 333.878906 154.664062 C 336.96875 155.4375 340.832031 153.121094 341.601562 154.664062 C 343.148438 156.210938 342.375 158.527344 336.195312 158.527344 C 333.878906 158.527344 330.789062 160.84375 327.699219 159.300781 C 326.925781 158.527344 326.152344 158.527344 325.382812 158.527344 C 322.292969 157.753906 319.203125 159.300781 316.882812 160.070312 C 312.25 160.84375 309.933594 160.84375 301.433594 159.300781 C 304.523438 160.84375 306.84375 160.84375 309.160156 161.617188 C 302.207031 164.707031 292.164062 167.023438 288.300781 167.023438 C 279.03125 167.796875 272.851562 168.570312 268.21875 167.796875 C 251.996094 164.707031 241.183594 161.617188 234.230469 160.070312 C 225.734375 163.933594 218.007812 170.113281 209.511719 180.15625 C 206.421875 182.472656 199.46875 190.96875 195.605469 192.515625 C 194.0625 193.289062 192.515625 192.515625 190.972656 191.742188 C 190.972656 184.789062 187.882812 177.839844 183.246094 173.203125 C 185.5625 177.066406 187.882812 181.699219 188.652344 185.5625 C 187.109375 183.246094 184.792969 180.929688 182.472656 179.382812 C 186.335938 184.019531 188.652344 189.425781 188.652344 195.605469 C 185.5625 201.011719 181.703125 205.648438 177.839844 209.507812 C 170.113281 214.917969 160.074219 225.730469 152.347656 227.277344 C 167.796875 213.371094 165.480469 204.101562 154.664062 196.378906 C 167.796875 211.054688 156.984375 218.007812 149.257812 226.503906 C 146.941406 228.046875 144.625 228.820312 143.078125 228.046875 C 140.761719 235 136.125 241.179688 129.175781 247.359375 C 119.132812 257.402344 110.636719 265.898438 103.683594 270.535156 C 101.367188 272.851562 98.277344 276.714844 96.730469 279.804688 C 92.867188 282.894531 90.550781 285.984375 89.007812 288.300781 C 81.28125 300.660156 73.554688 307.613281 65.058594 308.386719 C 61.96875 306.839844 60.425781 304.523438 60.425781 301.433594 C 59.652344 302.976562 59.652344 305.296875 61.195312 306.839844 C 58.878906 304.523438 57.335938 302.207031 57.335938 299.886719 C 57.335938 297.570312 58.105469 295.253906 59.652344 292.9375 C 65.832031 288.300781 70.464844 284.4375 73.554688 282.121094 C 77.417969 277.488281 79.734375 275.167969 81.28125 272.851562 C 84.371094 270.535156 87.460938 268.21875 91.324219 265.898438 C 101.367188 251.222656 107.546875 241.953125 109.863281 240.410156 C 114.496094 232.683594 119.132812 227.277344 123.765625 221.867188 C 122.222656 226.503906 122.222656 230.367188 123.765625 235 C 123.765625 223.414062 126.085938 214.917969 129.175781 209.507812 C 134.582031 193.289062 141.535156 187.878906 161.617188 194.058594 C 153.894531 187.109375 143.078125 188.652344 139.988281 190.199219 C 147.714844 180.929688 160.84375 175.519531 169.34375 177.066406 C 154.664062 173.203125 143.851562 180.929688 137.671875 190.199219 C 139.988281 185.5625 141.535156 181.699219 143.851562 179.382812 C 138.445312 184.789062 135.355469 189.425781 133.035156 194.058594 C 126.085938 182.472656 122.222656 171.660156 122.996094 160.84375 C 122.222656 163.160156 121.449219 165.480469 121.449219 168.570312 C 109.089844 175.519531 101.367188 178.609375 97.503906 177.066406 L 100.59375 178.609375 C 95.957031 179.382812 92.097656 180.929688 90.550781 182.472656 C 83.597656 186.335938 76.644531 186.335938 72.785156 192.515625 C 70.464844 194.832031 70.464844 192.515625 67.375 191.742188 C 68.921875 193.289062 69.695312 193.289062 69.695312 194.832031 C 68.148438 198.695312 65.058594 198.695312 64.285156 201.785156 C 63.515625 204.875 61.96875 204.101562 61.195312 204.101562 C 60.425781 203.328125 60.425781 203.328125 60.425781 202.558594 C 59.652344 203.328125 60.425781 204.101562 60.425781 204.101562 C 58.878906 204.875 57.335938 207.191406 55.789062 210.28125 C 54.246094 211.054688 53.472656 211.054688 54.246094 209.507812 C 54.246094 207.964844 54.246094 207.191406 55.015625 206.417969 C 51.15625 207.964844 50.382812 207.964844 51.925781 205.648438 C 57.335938 198.695312 62.742188 185.5625 71.238281 191.742188 C 68.921875 189.425781 67.375 188.652344 65.058594 188.652344 C 67.375 186.335938 72.785156 177.066406 87.460938 170.886719 C 85.144531 173.976562 83.597656 175.519531 82.824219 176.292969 C 85.917969 173.976562 89.777344 171.660156 93.640625 167.796875 C 99.820312 162.390625 106 159.300781 111.40625 156.210938 L 120.675781 150.800781 C 119.132812 147.710938 118.359375 145.394531 119.132812 143.078125 C 123.765625 152.347656 129.945312 152.347656 141.535156 147.710938 C 132.265625 147.710938 126.085938 151.574219 120.675781 141.53125 C 124.539062 140.761719 127.628906 139.988281 129.945312 136.898438 C 125.3125 138.441406 121.449219 139.988281 116.816406 139.988281 L 115.269531 137.671875 C 119.132812 135.351562 121.449219 133.035156 121.449219 129.945312 C 119.90625 133.035156 116.816406 135.351562 113.726562 136.898438 C 98.277344 138.441406 89.007812 137.671875 85.917969 133.808594 C 80.507812 131.492188 75.101562 129.945312 70.464844 129.945312 C 66.605469 128.402344 62.742188 127.628906 58.105469 126.855469 C 54.246094 129.171875 51.925781 129.171875 49.609375 130.71875 C 47.292969 132.261719 45.746094 133.808594 41.886719 134.582031 C 34.160156 135.351562 38.796875 122.992188 31.84375 117.585938 C 24.117188 106.769531 25.664062 101.363281 35.707031 106 C 40.339844 108.316406 43.429688 109.859375 44.203125 110.632812 C 50.382812 113.722656 55.015625 114.496094 56.5625 114.496094 C 61.195312 115.269531 65.058594 115.269531 68.921875 113.722656 C 90.550781 112.179688 104.457031 112.949219 112.179688 116.039062 C 118.359375 117.585938 123.765625 117.585938 128.402344 117.585938 C 133.808594 117.585938 135.355469 121.449219 139.214844 126.082031 C 139.988281 130.71875 139.214844 136.125 133.035156 140.761719 C 139.988281 139.988281 143.078125 129.945312 142.304688 126.855469 C 147.714844 131.492188 157.753906 148.484375 159.300781 161.617188 C 160.074219 149.257812 153.121094 133.808594 145.394531 125.3125 C 146.167969 126.082031 146.941406 126.855469 147.714844 127.628906 C 154.664062 122.992188 159.300781 119.902344 160.84375 117.585938 C 167.796875 114.496094 174.75 113.722656 181.703125 116.039062 C 182.472656 116.039062 180.15625 110.632812 180.15625 109.859375 C 179.382812 109.089844 180.15625 111.40625 177.839844 110.632812 C 176.292969 109.859375 170.886719 100.589844 174.75 100.589844 C 166.253906 85.914062 173.976562 75.101562 190.972656 75.871094 L 186.335938 77.417969 C 190.199219 76.644531 194.0625 77.417969 199.46875 79.734375 L 196.378906 80.507812 C 199.46875 83.597656 201.015625 85.914062 201.785156 87.460938 C 204.105469 85.914062 205.648438 87.460938 207.195312 92.09375 C 208.738281 95.957031 207.964844 97.5 205.648438 98.273438 C 204.875 98.273438 204.105469 98.273438 204.105469 98.273438 C 204.105469 101.363281 203.332031 104.453125 202.558594 106.769531 C 201.785156 104.453125 202.558594 103.679688 201.015625 99.820312 C 202.558594 106 200.242188 113.722656 194.0625 116.039062 C 191.742188 117.585938 188.652344 117.585938 184.792969 116.8125 Z M 184.792969 116.8125 " fill-opacity="1" fill-rule="evenodd"/></g><path fill="#fad02c" d="M 75.101562 85.140625 L 74.328125 84.371094 C 74.328125 85.140625 73.554688 85.140625 73.554688 85.140625 C 72.785156 85.140625 72.785156 85.140625 72.785156 85.914062 C 72.785156 89.003906 70.464844 92.09375 70.464844 92.09375 C 70.464844 92.867188 71.238281 94.410156 70.464844 97.5 L 71.238281 96.730469 C 72.785156 95.183594 73.554688 93.640625 74.328125 91.320312 C 75.101562 89.777344 75.101562 87.460938 75.101562 85.140625 Z M 47.292969 72.011719 L 45.746094 74.328125 C 45.746094 75.101562 46.519531 75.871094 46.519531 75.871094 C 47.292969 75.871094 50.382812 75.101562 52.699219 75.101562 C 53.472656 74.328125 55.015625 73.554688 56.5625 72.78125 C 57.335938 72.011719 57.335938 72.011719 58.105469 72.011719 C 57.335938 71.238281 56.5625 69.691406 55.789062 68.921875 C 53.472656 68.921875 51.15625 69.691406 48.835938 70.464844 C 48.066406 71.238281 48.066406 71.238281 47.292969 72.011719 Z M 39.566406 84.371094 C 39.566406 84.371094 39.566406 85.914062 40.339844 86.6875 C 41.886719 85.140625 43.429688 83.597656 44.203125 83.597656 C 44.203125 82.824219 44.203125 79.734375 45.746094 76.644531 C 45.746094 75.871094 45.746094 75.101562 44.976562 74.328125 L 44.203125 75.101562 C 44.203125 75.101562 43.429688 75.101562 43.429688 75.101562 C 41.886719 76.644531 41.113281 78.960938 40.339844 81.28125 C 39.566406 82.050781 39.566406 83.597656 39.566406 84.371094 Z M 64.285156 102.910156 L 64.285156 102.136719 C 61.195312 102.910156 58.878906 102.136719 58.878906 102.136719 C 58.105469 102.910156 55.789062 103.679688 51.925781 102.910156 L 51.925781 103.679688 C 55.789062 104.453125 60.425781 104.453125 64.285156 102.910156 Z M 64.285156 92.09375 C 63.515625 92.867188 61.195312 95.183594 58.105469 96.730469 C 58.878906 97.5 58.878906 99.046875 58.878906 101.363281 C 59.652344 102.136719 61.195312 102.136719 64.285156 102.136719 C 64.285156 101.363281 67.375 99.820312 69.695312 97.5 C 70.464844 95.957031 69.695312 94.410156 69.695312 93.640625 C 69.695312 92.867188 69.695312 92.867188 69.695312 92.867188 C 66.605469 92.867188 65.058594 92.09375 64.285156 92.09375 Z M 73.554688 84.371094 L 74.328125 81.28125 C 73.554688 80.507812 73.554688 78.960938 72.785156 78.191406 C 72.785156 77.417969 72.011719 77.417969 72.011719 76.644531 L 68.148438 73.554688 L 65.832031 74.328125 C 66.605469 75.101562 67.375 76.644531 68.148438 80.507812 C 70.464844 82.824219 72.011719 84.371094 72.011719 85.140625 C 72.785156 85.140625 73.554688 84.371094 73.554688 84.371094 Z M 68.148438 73.554688 L 70.464844 75.101562 C 69.695312 73.554688 68.921875 72.78125 68.148438 72.011719 Z M 53.472656 75.871094 L 55.015625 82.050781 C 58.878906 82.824219 61.195312 83.597656 61.96875 84.371094 C 61.96875 84.371094 62.742188 83.597656 62.742188 83.597656 C 65.058594 82.824219 66.605469 80.507812 67.375 80.507812 C 66.605469 76.644531 65.832031 75.101562 65.058594 74.328125 C 65.058594 74.328125 60.425781 72.011719 58.105469 72.011719 C 58.105469 72.011719 55.015625 74.328125 53.472656 75.871094 Z M 51.15625 102.910156 C 51.15625 102.910156 48.835938 100.589844 47.292969 98.273438 C 46.519531 98.273438 44.203125 96.730469 42.65625 95.183594 L 41.886719 95.957031 C 44.203125 99.820312 47.292969 102.136719 51.15625 103.679688 Z M 63.515625 92.09375 C 63.515625 89.003906 61.96875 85.140625 61.96875 84.371094 C 61.195312 84.371094 58.878906 82.824219 55.015625 82.050781 C 55.015625 82.824219 51.15625 85.140625 49.609375 87.460938 C 49.609375 87.460938 49.609375 90.550781 51.15625 93.640625 C 51.925781 94.410156 54.246094 95.957031 58.105469 96.730469 C 60.425781 95.183594 63.515625 92.09375 63.515625 92.09375 Z M 41.113281 87.460938 C 41.113281 87.460938 40.339844 90.550781 42.65625 94.410156 C 44.203125 95.957031 46.519531 97.5 47.292969 97.5 L 50.382812 94.410156 C 49.609375 90.550781 49.609375 88.230469 49.609375 87.460938 C 48.835938 86.6875 46.519531 85.914062 44.203125 84.371094 C 43.429688 84.371094 41.886719 85.140625 41.113281 87.460938 Z M 47.292969 96.730469 C 47.292969 95.957031 47.292969 95.957031 47.292969 95.957031 C 47.292969 95.957031 47.292969 95.957031 48.066406 95.957031 C 48.066406 95.183594 48.066406 95.183594 48.066406 95.183594 C 48.066406 95.183594 48.066406 94.410156 48.066406 94.410156 C 48.835938 94.410156 48.835938 94.410156 48.835938 94.410156 L 48.835938 93.640625 C 48.835938 93.640625 49.609375 93.640625 49.609375 93.640625 C 49.609375 93.640625 49.609375 93.640625 48.835938 93.640625 C 48.835938 93.640625 48.835938 93.640625 48.835938 92.867188 C 48.835938 92.09375 48.835938 92.09375 48.835938 92.09375 C 48.835938 91.320312 48.835938 91.320312 48.835938 91.320312 C 48.835938 91.320312 48.066406 91.320312 48.066406 91.320312 C 48.066406 90.550781 48.066406 90.550781 48.066406 90.550781 C 48.066406 89.777344 48.066406 89.777344 48.066406 89.777344 C 48.066406 89.003906 48.066406 89.003906 48.066406 89.003906 C 48.066406 88.230469 48.066406 88.230469 48.066406 88.230469 L 48.835938 88.230469 L 48.835938 89.777344 C 48.835938 89.777344 48.835938 89.777344 48.835938 90.550781 C 48.835938 90.550781 48.835938 90.550781 49.609375 91.320312 L 49.609375 92.09375 C 49.609375 92.867188 49.609375 92.867188 49.609375 92.867188 C 50.382812 92.867188 50.382812 93.640625 50.382812 93.640625 L 50.382812 94.410156 C 50.382812 94.410156 49.609375 94.410156 49.609375 94.410156 C 49.609375 94.410156 49.609375 94.410156 49.609375 95.183594 C 49.609375 95.183594 48.835938 95.183594 48.835938 95.183594 C 48.835938 95.957031 48.835938 95.957031 48.066406 95.957031 C 48.066406 95.957031 48.066406 95.957031 47.292969 96.730469 Z M 51.15625 86.6875 C 51.15625 85.914062 51.925781 85.914062 51.925781 85.914062 C 51.925781 85.914062 51.925781 85.914062 51.925781 85.140625 C 52.699219 85.140625 52.699219 85.140625 52.699219 85.140625 L 53.472656 84.371094 C 53.472656 84.371094 53.472656 83.597656 54.246094 83.597656 C 54.246094 83.597656 55.015625 83.597656 55.015625 83.597656 C 55.015625 82.824219 55.015625 82.824219 55.015625 82.824219 L 55.789062 82.824219 C 55.789062 82.824219 56.5625 82.824219 56.5625 82.824219 C 56.5625 83.597656 57.335938 83.597656 57.335938 83.597656 L 58.105469 83.597656 C 58.105469 83.597656 58.105469 83.597656 58.878906 83.597656 C 58.878906 83.597656 58.878906 84.371094 58.878906 84.371094 C 58.878906 84.371094 58.878906 84.371094 59.652344 84.371094 C 60.425781 85.140625 60.425781 85.140625 60.425781 85.140625 C 60.425781 85.140625 61.195312 85.140625 61.195312 85.140625 L 59.652344 85.140625 C 59.652344 85.140625 58.878906 84.371094 58.878906 84.371094 L 56.5625 84.371094 C 56.5625 84.371094 56.5625 83.597656 56.5625 83.597656 L 55.789062 83.597656 L 53.472656 85.914062 L 52.699219 85.914062 C 52.699219 85.914062 52.699219 85.914062 52.699219 86.6875 C 52.699219 86.6875 52.699219 86.6875 51.925781 86.6875 L 51.925781 87.460938 L 51.15625 87.460938 C 51.15625 86.6875 51.15625 86.6875 51.15625 86.6875 Z M 57.335938 74.328125 L 56.5625 74.328125 L 55.789062 75.101562 C 55.789062 75.101562 55.015625 75.101562 55.015625 75.101562 C 55.015625 75.101562 55.015625 75.871094 55.015625 75.871094 C 55.015625 75.871094 54.246094 75.871094 54.246094 75.871094 C 54.246094 75.871094 54.246094 75.871094 55.015625 75.871094 C 55.015625 75.871094 55.015625 75.871094 55.015625 75.101562 C 55.789062 75.101562 55.789062 75.101562 55.789062 74.328125 C 55.789062 74.328125 56.5625 74.328125 56.5625 74.328125 L 56.5625 73.554688 C 57.335938 73.554688 57.335938 73.554688 57.335938 73.554688 C 57.335938 73.554688 58.105469 72.78125 58.105469 72.78125 L 58.878906 72.78125 C 59.652344 72.78125 59.652344 72.78125 59.652344 72.78125 C 59.652344 72.78125 59.652344 72.78125 60.425781 72.78125 C 60.425781 72.78125 60.425781 72.78125 60.425781 73.554688 C 61.195312 73.554688 61.195312 73.554688 61.195312 73.554688 L 61.96875 73.554688 L 61.96875 74.328125 C 62.742188 74.328125 62.742188 74.328125 62.742188 74.328125 C 62.742188 74.328125 63.515625 74.328125 63.515625 74.328125 C 63.515625 74.328125 63.515625 75.101562 63.515625 75.101562 C 63.515625 75.101562 64.285156 75.101562 64.285156 75.101562 C 64.285156 75.101562 64.285156 75.871094 64.285156 75.871094 L 63.515625 75.101562 L 62.742188 75.101562 L 61.195312 74.328125 L 60.425781 74.328125 C 60.425781 74.328125 60.425781 74.328125 59.652344 74.328125 C 59.652344 73.554688 59.652344 73.554688 59.652344 73.554688 C 59.652344 73.554688 58.878906 73.554688 58.878906 73.554688 L 58.105469 73.554688 Z M 68.148438 78.960938 C 68.148438 78.960938 68.148438 78.191406 68.148438 78.191406 L 68.148438 76.644531 C 68.148438 76.644531 68.148438 76.644531 67.375 76.644531 C 67.375 76.644531 67.375 76.644531 67.375 75.871094 L 67.375 75.101562 C 67.375 75.101562 67.375 75.101562 67.375 75.871094 C 67.375 75.871094 68.148438 75.871094 68.148438 75.871094 C 68.148438 75.871094 68.148438 76.644531 68.148438 76.644531 C 68.148438 77.417969 68.921875 77.417969 68.921875 77.417969 C 68.921875 77.417969 68.921875 78.191406 68.921875 78.191406 C 68.921875 78.960938 68.921875 78.960938 68.921875 78.960938 C 68.921875 78.960938 68.921875 79.734375 69.695312 79.734375 C 69.695312 80.507812 69.695312 80.507812 69.695312 80.507812 L 70.464844 80.507812 C 70.464844 80.507812 70.464844 80.507812 70.464844 81.28125 C 70.464844 81.28125 70.464844 81.28125 71.238281 81.28125 C 71.238281 81.28125 71.238281 81.28125 71.238281 82.050781 C 72.011719 82.050781 72.011719 82.050781 72.011719 82.050781 C 72.011719 82.824219 72.011719 82.824219 72.011719 82.824219 C 72.011719 82.824219 72.011719 83.597656 72.011719 83.597656 C 72.785156 83.597656 72.785156 83.597656 72.785156 83.597656 C 72.785156 84.371094 72.785156 84.371094 72.785156 84.371094 C 72.785156 84.371094 72.785156 84.371094 72.785156 83.597656 L 72.011719 83.597656 C 72.011719 83.597656 72.011719 83.597656 72.011719 82.824219 C 72.011719 82.824219 71.238281 82.824219 71.238281 82.824219 C 71.238281 82.050781 71.238281 82.050781 70.464844 82.050781 C 70.464844 82.050781 70.464844 81.28125 70.464844 81.28125 L 69.695312 81.28125 L 68.921875 80.507812 C 68.921875 80.507812 68.921875 80.507812 68.921875 79.734375 L 68.148438 79.734375 Z M 65.058594 92.867188 C 65.058594 92.867188 65.058594 92.867188 65.832031 92.867188 C 66.605469 92.867188 66.605469 92.867188 66.605469 92.867188 C 67.375 92.867188 67.375 92.867188 67.375 92.867188 C 68.148438 92.867188 68.148438 93.640625 68.148438 93.640625 C 68.921875 93.640625 68.921875 93.640625 68.921875 93.640625 C 68.148438 93.640625 68.148438 93.640625 68.148438 93.640625 C 68.148438 93.640625 67.375 93.640625 67.375 93.640625 C 67.375 93.640625 67.375 93.640625 66.605469 93.640625 C 66.605469 93.640625 66.605469 93.640625 65.832031 93.640625 C 65.832031 93.640625 65.832031 93.640625 65.058594 93.640625 C 64.285156 93.640625 64.285156 92.867188 64.285156 92.867188 C 64.285156 92.867188 64.285156 92.867188 65.058594 92.867188 Z M 65.058594 103.679688 C 60.425781 106 55.789062 106 51.925781 104.453125 C 46.519531 102.910156 43.429688 100.589844 41.113281 95.957031 C 41.113281 95.957031 40.339844 95.957031 40.339844 95.957031 C 40.339844 95.183594 40.339844 95.183594 40.339844 95.183594 C 40.339844 94.410156 40.339844 94.410156 40.339844 94.410156 C 40.339844 94.410156 39.566406 94.410156 39.566406 94.410156 C 39.566406 94.410156 39.566406 93.640625 39.566406 93.640625 C 39.566406 92.867188 39.566406 92.867188 39.566406 92.867188 C 38.023438 89.003906 38.023438 84.371094 38.796875 80.507812 C 40.339844 75.871094 43.429688 72.011719 48.066406 69.691406 C 52.699219 67.375 58.105469 66.601562 62.742188 68.148438 C 67.375 69.691406 71.238281 72.78125 73.554688 77.417969 C 75.875 82.050781 76.644531 87.460938 75.101562 92.09375 C 74.328125 95.183594 72.011719 98.273438 69.695312 100.589844 C 68.921875 101.363281 68.921875 101.363281 68.921875 101.363281 C 68.921875 101.363281 68.148438 101.363281 68.148438 102.136719 C 68.148438 102.136719 67.375 102.136719 67.375 102.910156 C 67.375 102.910156 66.605469 102.910156 66.605469 102.910156 C 66.605469 102.910156 65.832031 103.679688 65.832031 103.679688 C 65.058594 103.679688 65.058594 103.679688 65.058594 103.679688 Z M 65.058594 103.679688 " fill-opacity="1" fill-rule="evenodd"/><g fill="#fad02c" fill-opacity="1"><g transform="translate(187.61718, 272.041739)"><g><path d="M 10.65625 -21.734375 L 10.65625 -15.609375 L 22.921875 -15.609375 L 22.921875 -9.53125 L 10.65625 -9.53125 L 10.65625 0 L 2.78125 0 L 2.78125 -27.8125 L 24.59375 -27.8125 L 24.59375 -21.734375 Z M 10.65625 -21.734375 "/></g></g></g><g fill="#fad02c" fill-opacity="1"><g transform="translate(213.12163, 272.041739)"><g><path d="M 15.609375 0.5625 C 11.484375 0.5625 8.273438 -0.5625 5.984375 -2.8125 C 3.691406 -5.070312 2.546875 -8.265625 2.546875 -12.390625 L 2.546875 -27.8125 L 10.40625 -27.8125 L 10.40625 -12.640625 C 10.40625 -8.179688 12.164062 -5.953125 15.6875 -5.953125 C 19.1875 -5.953125 20.9375 -8.179688 20.9375 -12.640625 L 20.9375 -27.8125 L 28.6875 -27.8125 L 28.6875 -12.390625 C 28.6875 -8.265625 27.539062 -5.070312 25.25 -2.8125 C 22.957031 -0.5625 19.742188 0.5625 15.609375 0.5625 Z M 15.609375 0.5625 "/></g></g></g><g fill="#fad02c" fill-opacity="1"><g transform="translate(244.346695, 272.041739)"><g><path d="M 8.703125 -21.578125 L 0.15625 -21.578125 L 0.15625 -27.8125 L 25.078125 -27.8125 L 25.078125 -21.578125 L 16.5625 -21.578125 L 16.5625 0 L 8.703125 0 Z M 8.703125 -21.578125 "/></g></g></g><g fill="#fad02c" fill-opacity="1"><g transform="translate(269.573054, 272.041739)"><g><path d="M 12.5625 0.5625 C 10.300781 0.5625 8.113281 0.285156 6 -0.265625 C 3.882812 -0.828125 2.160156 -1.570312 0.828125 -2.5 L 3.421875 -8.296875 C 4.660156 -7.484375 6.101562 -6.820312 7.75 -6.3125 C 9.394531 -5.8125 11.007812 -5.5625 12.59375 -5.5625 C 15.613281 -5.5625 17.125 -6.316406 17.125 -7.828125 C 17.125 -8.617188 16.691406 -9.207031 15.828125 -9.59375 C 14.972656 -9.976562 13.59375 -10.382812 11.6875 -10.8125 C 9.59375 -11.257812 7.84375 -11.738281 6.4375 -12.25 C 5.03125 -12.769531 3.820312 -13.597656 2.8125 -14.734375 C 1.8125 -15.878906 1.3125 -17.414062 1.3125 -19.34375 C 1.3125 -21.039062 1.773438 -22.570312 2.703125 -23.9375 C 3.628906 -25.300781 5.007812 -26.378906 6.84375 -27.171875 C 8.6875 -27.972656 10.945312 -28.375 13.625 -28.375 C 15.457031 -28.375 17.257812 -28.164062 19.03125 -27.75 C 20.800781 -27.34375 22.363281 -26.742188 23.71875 -25.953125 L 21.296875 -20.109375 C 18.648438 -21.535156 16.082031 -22.25 13.59375 -22.25 C 12.03125 -22.25 10.890625 -22.015625 10.171875 -21.546875 C 9.453125 -21.085938 9.09375 -20.488281 9.09375 -19.75 C 9.09375 -19.007812 9.515625 -18.453125 10.359375 -18.078125 C 11.210938 -17.703125 12.582031 -17.316406 14.46875 -16.921875 C 16.582031 -16.472656 18.332031 -15.988281 19.71875 -15.46875 C 21.113281 -14.957031 22.320312 -14.140625 23.34375 -13.015625 C 24.363281 -11.890625 24.875 -10.359375 24.875 -8.421875 C 24.875 -6.753906 24.410156 -5.242188 23.484375 -3.890625 C 22.554688 -2.546875 21.164062 -1.46875 19.3125 -0.65625 C 17.457031 0.15625 15.207031 0.5625 12.5625 0.5625 Z M 12.5625 0.5625 "/></g></g></g><g fill="#fad02c" fill-opacity="1"><g transform="translate(295.276139, 272.041739)"><g><path d="M 21.421875 -5.40625 L 9.65625 -5.40625 L 7.46875 0 L -0.5625 0 L 11.71875 -27.8125 L 19.46875 -27.8125 L 31.78125 0 L 23.609375 0 Z M 19.109375 -11.203125 L 15.53125 -20.109375 L 11.953125 -11.203125 Z M 19.109375 -11.203125 "/></g></g></g><g fill="#fad02c" fill-opacity="1"><g transform="translate(326.501204, 272.041739)"><g><path d="M 2.78125 -27.8125 L 10.65625 -27.8125 L 10.65625 -6.234375 L 23.921875 -6.234375 L 23.921875 0 L 2.78125 0 Z M 2.78125 -27.8125 "/></g></g></g><g fill="#fad02c" fill-opacity="1"><g transform="translate(199.816398, 327.541735)"><g><path d="M 10.65625 -21.734375 L 10.65625 -15.609375 L 22.921875 -15.609375 L 22.921875 -9.53125 L 10.65625 -9.53125 L 10.65625 0 L 2.78125 0 L 2.78125 -27.8125 L 24.59375 -27.8125 L 24.59375 -21.734375 Z M 10.65625 -21.734375 "/></g></g></g><g fill="#fad02c" fill-opacity="1"><g transform="translate(225.320848, 327.541735)"><g><path d="M 25.109375 -6.078125 L 25.109375 0 L 2.78125 0 L 2.78125 -27.8125 L 24.59375 -27.8125 L 24.59375 -21.734375 L 10.5625 -21.734375 L 10.5625 -17.046875 L 22.921875 -17.046875 L 22.921875 -11.171875 L 10.5625 -11.171875 L 10.5625 -6.078125 Z M 25.109375 -6.078125 "/></g></g></g><g fill="#fad02c" fill-opacity="1"><g transform="translate(252.017097, 327.541735)"><g><path d="M 31 -27.8125 L 19.078125 0 L 11.328125 0 L -0.5625 -27.8125 L 7.953125 -27.8125 L 15.5 -9.6875 L 23.203125 -27.8125 Z M 31 -27.8125 "/></g></g></g><g fill="#fad02c" fill-opacity="1"><g transform="translate(282.447633, 327.541735)"><g><path d="M 25.109375 -6.078125 L 25.109375 0 L 2.78125 0 L 2.78125 -27.8125 L 24.59375 -27.8125 L 24.59375 -21.734375 L 10.5625 -21.734375 L 10.5625 -17.046875 L 22.921875 -17.046875 L 22.921875 -11.171875 L 10.5625 -11.171875 L 10.5625 -6.078125 Z M 25.109375 -6.078125 "/></g></g></g><g fill="#fad02c" fill-opacity="1"><g transform="translate(309.143882, 327.541735)"><g><path d="M 14.9375 -7.390625 L 10.65625 -7.390625 L 10.65625 0 L 2.78125 0 L 2.78125 -27.8125 L 15.5 -27.8125 C 18.007812 -27.8125 20.191406 -27.394531 22.046875 -26.5625 C 23.898438 -25.726562 25.332031 -24.535156 26.34375 -22.984375 C 27.351562 -21.429688 27.859375 -19.609375 27.859375 -17.515625 C 27.859375 -15.503906 27.382812 -13.75 26.4375 -12.25 C 25.5 -10.757812 24.15625 -9.585938 22.40625 -8.734375 L 28.40625 0 L 19.984375 0 Z M 19.90625 -17.515625 C 19.90625 -18.816406 19.492188 -19.820312 18.671875 -20.53125 C 17.847656 -21.25 16.628906 -21.609375 15.015625 -21.609375 L 10.65625 -21.609375 L 10.65625 -13.46875 L 15.015625 -13.46875 C 16.628906 -13.46875 17.847656 -13.816406 18.671875 -14.515625 C 19.492188 -15.222656 19.90625 -16.222656 19.90625 -17.515625 Z M 19.90625 -17.515625 "/></g></g></g></svg>